<?xml version="1.0" standalone="no"?>
<!DOCTYPE svg PUBLIC "-//W3C//DTD SVG 20010904//EN"
 "http://www.w3.org/TR/2001/REC-SVG-20010904/DTD/svg10.dtd">
<svg version="1.0" xmlns="http://www.w3.org/2000/svg"
 width="700.000000pt" height="700.000000pt" viewBox="0 0 700.000000 700.000000"
 preserveAspectRatio="xMidYMid meet">
<metadata>
Created by potrace 1.11, written by Peter Selinger 2001-2013
</metadata>
<g transform="translate(0.000000,700.000000) scale(0.100000,-0.100000)"
fill="#000000" stroke="none">
<path d="M3269 6886 c-2 -2 -42 -7 -89 -11 -47 -4 -94 -9 -105 -11 -11 -2 -42
-6 -70 -9 -145 -17 -431 -86 -616 -151 -485 -169 -901 -428 -1264 -789 -245
-243 -356 -383 -529 -667 -172 -282 -332 -670 -391 -948 -2 -8 -9 -37 -15 -65
-15 -62 -17 -74 -24 -116 -3 -19 -8 -43 -10 -55 -2 -12 -7 -45 -11 -74 -4 -29
-9 -62 -11 -74 -25 -125 -25 -698 1 -834 1 -10 6 -42 10 -72 60 -458 257 -973
528 -1380 141 -211 250 -344 432 -525 199 -199 311 -290 546 -444 255 -169
618 -339 869 -407 216 -59 365 -92 493 -109 27 -4 57 -8 66 -10 102 -20 610
-28 736 -12 33 4 80 10 105 13 215 25 512 95 720 169 329 118 691 318 956 530
157 126 348 308 465 445 35 41 66 77 69 80 48 46 243 331 319 468 51 90 181
354 181 367 0 4 7 21 15 38 75 160 172 519 210 782 4 22 8 51 10 65 14 91 20
215 20 420 0 273 -8 372 -50 615 -3 17 -12 62 -21 100 -9 39 -18 80 -20 92
-16 83 -98 335 -157 483 -30 76 -151 321 -200 405 -151 261 -318 478 -541 700
-207 207 -414 370 -646 510 -85 52 -381 205 -395 205 -3 0 -24 9 -48 19 -129
59 -435 155 -592 187 -44 9 -142 26 -170 31 -16 2 -41 6 -55 9 -14 2 -52 6
-85 10 -33 3 -71 8 -85 11 -28 6 -546 14 -551 9z m632 -1326 c38 -20 71 -58
83 -98 4 -12 7 -451 7 -975 l1 -954 431 -314 c457 -333 467 -341 486 -378 18
-32 22 -99 8 -130 -10 -22 -65 -106 -90 -136 -5 -5 -80 -109 -168 -229 -87
-121 -167 -227 -177 -236 -23 -21 -87 -39 -123 -35 -17 2 -48 15 -69 27 -32
19 -220 152 -255 181 -5 4 -73 54 -150 109 -77 56 -176 128 -220 160 -44 32
-89 65 -100 72 -129 92 -486 354 -504 370 -54 48 -52 -8 -52 1272 0 1281 -2
1221 51 1269 45 41 80 44 449 44 329 0 356 -1 392 -19z"/>
</g>
</svg>
